<?xml version="1.0" encoding="utf-8"?>
<svg
	version="1.1"
	xmlns="http://www.w3.org/2000/svg"
	xmlns:xlink="http://www.w3.org/1999/xlink"
	x="0px" y="0px"
	width="54.0px" height="54.0px"
	viewBox="0 0 54.0 54.0"
	enable-background="new 0 0 54.0 54.0"
	xml:space="preserve">
	<path
		fill="#FFE300"
		stroke="#000000"
		fill-opacity="1.000"
		stroke-opacity="1.000"
		fill-rule="nonzero"
		stroke-width="0.0"
		stroke-linejoin="miter"
		stroke-linecap="square"
		d="M22.92,6.18C32.72,6.18,40.66,14.13,40.66,23.94C40.66,33.76,32.72,41.71,22.92,41.71C13.11,41.71,5.17,33.76,5.17,23.94C5.17,14.13,13.11,6.18,22.92,6.18z"/>
	<path
		fill="#FFFFFF"
		stroke="#FFFFFF"
		fill-opacity="1.000"
		stroke-opacity="1.000"
		fill-rule="nonzero"
		stroke-width="0.84373796"
		stroke-linejoin="miter"
		stroke-linecap="square"
		d="M25.89,28.59L48.70,36.01L43.55,41.24L49.76,45.90L44.57,51.71L39.00,45.90L34.63,51.30L25.89,28.59z"/>
	<path
		fill="#FFFFFF"
		stroke="#000000"
		fill-opacity="1.000"
		stroke-opacity="1.000"
		fill-rule="nonzero"
		stroke-width="0.84373796"
		stroke-linejoin="miter"
		stroke-linecap="square"
		d="M27.07,25.45L49.87,32.87L44.73,38.10L50.94,42.76L45.74,48.57L40.17,42.76L35.80,48.16L27.07,25.45z"/>
	<path
		fill="#FFFFFF"
		stroke="#000000"
		fill-opacity="1.000"
		stroke-opacity="1.000"
		fill-rule="nonzero"
		stroke-width="0.90400493"
		stroke-linejoin="miter"
		stroke-linecap="square"
		d="M13.38,28.13L21.31,28.24"/>
	<path
		fill="#FFFFFF"
		stroke="#000000"
		fill-opacity="1.000"
		stroke-opacity="1.000"
		fill-rule="nonzero"
		stroke-width="0.90400493"
		stroke-linejoin="miter"
		stroke-linecap="square"
		d="M28.12,13.57L27.99,19.97"/>
	<path
		fill="#FFFFFF"
		stroke="#000000"
		fill-opacity="1.000"
		stroke-opacity="1.000"
		fill-rule="nonzero"
		stroke-width="0.90400493"
		stroke-linejoin="miter"
		stroke-linecap="square"
		d="M17.34,16.77L23.60,23.21"/>
</svg>